<svg width="310" height="180" viewBox="0 0 310 180" fill="none" xmlns="http://www.w3.org/2000/svg">
<path d="M56.192 148.536C49.024 148.536 42.368 147.299 36.224 144.824C30.08 142.349 24.704 138.893 20.096 134.456C15.5733 129.933 12.032 124.685 9.472 118.712C6.912 112.739 5.632 106.253 5.632 99.256C5.632 92.2587 6.86933 85.7733 9.344 79.8C11.904 73.8267 15.4453 68.6213 19.968 64.184C24.576 59.7467 29.952 56.2907 36.096 53.816C42.24 51.3413 48.9387 50.104 56.192 50.104C63.4453 50.104 70.144 51.3413 76.288 53.816C82.432 56.2907 87.7653 59.7467 92.288 64.184C96.896 68.6213 100.437 73.8267 102.912 79.8C105.472 85.7733 106.752 92.2587 106.752 99.256C106.752 106.253 105.472 112.739 102.912 118.712C100.352 124.685 96.768 129.933 92.16 134.456C87.6373 138.893 82.304 142.349 76.16 144.824C70.016 147.299 63.36 148.536 56.192 148.536ZM56.192 130.616C60.544 130.616 64.5547 129.848 68.224 128.312C71.9787 126.776 75.264 124.643 78.08 121.912C80.896 119.096 83.072 115.768 84.608 111.928C86.144 108.088 86.912 103.864 86.912 99.256C86.912 94.648 86.144 90.4667 84.608 86.712C83.072 82.872 80.896 79.544 78.08 76.728C75.264 73.912 71.9787 71.7787 68.224 70.328C64.5547 68.792 60.544 68.024 56.192 68.024C51.84 68.024 47.7867 68.792 44.032 70.328C40.3627 71.7787 37.12 73.912 34.304 76.728C31.488 79.544 29.312 82.872 27.776 86.712C26.24 90.4667 25.472 94.648 25.472 99.256C25.472 103.864 26.24 108.088 27.776 111.928C29.312 115.768 31.488 119.096 34.304 121.912C37.12 124.643 40.3627 126.776 44.032 128.312C47.7867 129.848 51.84 130.616 56.192 130.616Z" fill="#F1F5F9"/>
<path d="M110.448 147V51.64H129.648L165.36 99H156.4L191.088 51.64H210.288V147H190.448V73.528L198.384 75.32L161.648 122.68H159.088L123.632 75.32L130.288 73.528V147H110.448Z" fill="#F1F5F9"/>
<path d="M213.408 147L245.664 51.64H272.032L304.288 147H282.656L276.256 127.544H241.312L234.912 147H213.408ZM246.816 110.264H270.752L256.16 65.208H261.536L246.816 110.264Z" fill="#F1F5F9"/>
<path d="M110.264 175L116.792 157.12H118.856L125.384 175H123.368L121.832 170.632H113.84L112.28 175H110.264ZM114.464 168.832H121.16L117.536 158.56H118.112L114.464 168.832ZM140.278 175.288C139.142 175.288 138.11 175.072 137.182 174.64C136.254 174.208 135.47 173.632 134.83 172.912C134.19 172.176 133.734 171.368 133.462 170.488L135.19 169.84C135.606 171.056 136.254 171.984 137.134 172.624C138.014 173.248 139.062 173.56 140.278 173.56C141.046 173.56 141.718 173.44 142.294 173.2C142.886 172.944 143.342 172.592 143.662 172.144C143.982 171.696 144.142 171.176 144.142 170.584C144.142 169.704 143.902 169.024 143.422 168.544C142.942 168.064 142.254 167.696 141.358 167.44L138.142 166.48C136.878 166.112 135.902 165.496 135.214 164.632C134.542 163.768 134.206 162.784 134.206 161.68C134.206 160.736 134.438 159.904 134.902 159.184C135.366 158.448 135.998 157.872 136.798 157.456C137.614 157.04 138.534 156.832 139.558 156.832C140.63 156.832 141.59 157.032 142.438 157.432C143.302 157.816 144.03 158.328 144.622 158.968C145.214 159.608 145.638 160.32 145.894 161.104L144.214 161.776C143.83 160.72 143.23 159.92 142.414 159.376C141.614 158.832 140.67 158.56 139.582 158.56C138.894 158.56 138.286 158.68 137.758 158.92C137.246 159.16 136.846 159.504 136.558 159.952C136.27 160.4 136.126 160.928 136.126 161.536C136.126 162.272 136.358 162.936 136.822 163.528C137.286 164.104 137.998 164.536 138.958 164.824L141.79 165.664C143.198 166.08 144.262 166.68 144.982 167.464C145.702 168.248 146.062 169.232 146.062 170.416C146.062 171.376 145.814 172.224 145.318 172.96C144.838 173.68 144.158 174.248 143.278 174.664C142.414 175.08 141.414 175.288 140.278 175.288ZM162.513 175.288C161.377 175.288 160.345 175.072 159.417 174.64C158.489 174.208 157.705 173.632 157.065 172.912C156.425 172.176 155.969 171.368 155.697 170.488L157.425 169.84C157.841 171.056 158.489 171.984 159.369 172.624C160.249 173.248 161.297 173.56 162.513 173.56C163.281 173.56 163.953 173.44 164.529 173.2C165.121 172.944 165.577 172.592 165.897 172.144C166.217 171.696 166.377 171.176 166.377 170.584C166.377 169.704 166.137 169.024 165.657 168.544C165.177 168.064 164.489 167.696 163.593 167.44L160.377 166.48C159.113 166.112 158.137 165.496 157.449 164.632C156.777 163.768 156.441 162.784 156.441 161.68C156.441 160.736 156.673 159.904 157.137 159.184C157.601 158.448 158.233 157.872 159.033 157.456C159.849 157.04 160.769 156.832 161.793 156.832C162.865 156.832 163.825 157.032 164.673 157.432C165.537 157.816 166.265 158.328 166.857 158.968C167.449 159.608 167.873 160.32 168.129 161.104L166.449 161.776C166.065 160.72 165.465 159.92 164.649 159.376C163.849 158.832 162.905 158.56 161.817 158.56C161.129 158.56 160.521 158.68 159.993 158.92C159.481 159.16 159.081 159.504 158.793 159.952C158.505 160.4 158.361 160.928 158.361 161.536C158.361 162.272 158.593 162.936 159.057 163.528C159.521 164.104 160.233 164.536 161.193 164.824L164.025 165.664C165.433 166.08 166.497 166.68 167.217 167.464C167.937 168.248 168.297 169.232 168.297 170.416C168.297 171.376 168.049 172.224 167.553 172.96C167.073 173.68 166.393 174.248 165.513 174.664C164.649 175.08 163.649 175.288 162.513 175.288ZM178.725 175V157.12H190.245V158.92H180.645V165.136H189.765V166.936H180.645V173.2H190.245V175H178.725ZM203.236 175V158.92H198.292V157.12H210.052V158.92H205.156V175H203.236Z" fill="#D1B86A"/>
<path d="M134 51L129 48V36.5L134 32V51Z" fill="#D1B86A"/>
<path d="M142 59L137 55.8696V25.5714L142 23V59Z" fill="#D1B86A"/>
<path d="M152 69L145 64.0435V14.5909L152 12V69Z" fill="#D1B86A"/>
<path d="M188 51L192 48V36L188 32V51Z" fill="#D1B86A"/>
<path d="M180 59L185 55.8696V25.5714L180 23V59Z" fill="#D1B86A"/>
<path d="M170 69L177 64.0435V14.5909L170 12V69Z" fill="#D1B86A"/>
<path d="M161 3L158 4.54967V79.4503L161 81L164 79.4503V4.54967L161 3Z" fill="#D1B86A"/>
</svg>
