<svg width="310" height="149" viewBox="0 0 310 149" fill="none" xmlns="http://www.w3.org/2000/svg">
<g clip-path="url(#clip0_1080_120)">
<path d="M56.192 110.536C49.024 110.536 42.368 109.299 36.224 106.824C30.08 104.349 24.704 100.893 20.096 96.456C15.5733 91.9333 12.032 86.6853 9.472 80.712C6.912 74.7387 5.632 68.2533 5.632 61.256C5.632 54.2587 6.86933 47.7733 9.344 41.8C11.904 35.8267 15.4453 30.6213 19.968 26.184C24.576 21.7467 29.952 18.2907 36.096 15.816C42.24 13.3413 48.9387 12.104 56.192 12.104C63.4453 12.104 70.144 13.3413 76.288 15.816C82.432 18.2907 87.7653 21.7467 92.288 26.184C96.896 30.6213 100.437 35.8267 102.912 41.8C105.472 47.7733 106.752 54.2587 106.752 61.256C106.752 68.2533 105.472 74.7387 102.912 80.712C100.352 86.6853 96.768 91.9333 92.16 96.456C87.6373 100.893 82.304 104.349 76.16 106.824C70.016 109.299 63.36 110.536 56.192 110.536ZM56.192 92.616C60.544 92.616 64.5547 91.848 68.224 90.312C71.9787 88.776 75.264 86.6427 78.08 83.912C80.896 81.096 83.072 77.768 84.608 73.928C86.144 70.088 86.912 65.864 86.912 61.256C86.912 56.648 86.144 52.4667 84.608 48.712C83.072 44.872 80.896 41.544 78.08 38.728C75.264 35.912 71.9787 33.7787 68.224 32.328C64.5547 30.792 60.544 30.024 56.192 30.024C51.84 30.024 47.7867 30.792 44.032 32.328C40.3627 33.7787 37.12 35.912 34.304 38.728C31.488 41.544 29.312 44.872 27.776 48.712C26.24 52.4667 25.472 56.648 25.472 61.256C25.472 65.864 26.24 70.088 27.776 73.928C29.312 77.768 31.488 81.096 34.304 83.912C37.12 86.6427 40.3627 88.776 44.032 90.312C47.7867 91.848 51.84 92.616 56.192 92.616Z" fill="#2B2B2B"/>
<path d="M110.448 109V13.64H129.648L165.36 61H156.4L191.088 13.64H210.288V109H190.448V35.528L198.384 37.32L161.648 84.68H159.088L123.632 37.32L130.288 35.528V109H110.448Z" fill="#2B2B2B"/>
<path d="M213.408 109L245.664 13.64H272.032L304.288 109H282.656L276.256 89.544H241.312L234.912 109H213.408ZM246.816 72.264H270.752L256.16 27.208H261.536L246.816 72.264Z" fill="#2B2B2B"/>
<path d="M99.352 142L107.896 118.16H111.608L120.152 142H116.792L114.84 136.4H104.664L102.712 142H99.352ZM105.656 133.52H113.848L109.304 120.432H110.2L105.656 133.52ZM137.436 142.384C135.921 142.384 134.534 142.107 133.275 141.552C132.017 140.976 130.95 140.197 130.075 139.216C129.201 138.235 128.571 137.136 128.187 135.92L130.907 134.8C131.483 136.336 132.337 137.52 133.467 138.352C134.62 139.163 135.964 139.568 137.5 139.568C138.438 139.568 139.26 139.419 139.964 139.12C140.668 138.821 141.212 138.405 141.595 137.872C142.001 137.317 142.204 136.677 142.204 135.952C142.204 134.949 141.916 134.16 141.34 133.584C140.785 132.987 139.964 132.539 138.875 132.24L134.491 130.896C132.763 130.363 131.441 129.52 130.523 128.368C129.606 127.216 129.147 125.893 129.147 124.4C129.147 123.099 129.457 121.957 130.075 120.976C130.715 119.973 131.59 119.195 132.7 118.64C133.83 118.064 135.11 117.776 136.54 117.776C137.969 117.776 139.26 118.032 140.411 118.544C141.585 119.056 142.577 119.749 143.388 120.624C144.198 121.477 144.796 122.459 145.18 123.568L142.491 124.688C141.98 123.344 141.212 122.331 140.188 121.648C139.163 120.944 137.958 120.592 136.571 120.592C135.718 120.592 134.961 120.741 134.299 121.04C133.659 121.317 133.158 121.733 132.795 122.288C132.454 122.821 132.283 123.461 132.283 124.208C132.283 125.083 132.561 125.861 133.115 126.544C133.67 127.227 134.513 127.749 135.644 128.112L139.644 129.296C141.521 129.872 142.94 130.693 143.899 131.76C144.86 132.827 145.34 134.149 145.34 135.728C145.34 137.029 144.998 138.181 144.316 139.184C143.654 140.187 142.726 140.976 141.531 141.552C140.358 142.107 138.993 142.384 137.436 142.384ZM164.523 142.384C163.008 142.384 161.622 142.107 160.363 141.552C159.104 140.976 158.038 140.197 157.163 139.216C156.288 138.235 155.659 137.136 155.275 135.92L157.995 134.8C158.571 136.336 159.424 137.52 160.555 138.352C161.707 139.163 163.051 139.568 164.587 139.568C165.526 139.568 166.347 139.419 167.051 139.12C167.755 138.821 168.299 138.405 168.683 137.872C169.088 137.317 169.291 136.677 169.291 135.952C169.291 134.949 169.003 134.16 168.427 133.584C167.872 132.987 167.051 132.539 165.963 132.24L161.579 130.896C159.851 130.363 158.528 129.52 157.611 128.368C156.694 127.216 156.235 125.893 156.235 124.4C156.235 123.099 156.544 121.957 157.163 120.976C157.803 119.973 158.678 119.195 159.787 118.64C160.918 118.064 162.198 117.776 163.627 117.776C165.056 117.776 166.347 118.032 167.499 118.544C168.672 119.056 169.664 119.749 170.475 120.624C171.286 121.477 171.883 122.459 172.267 123.568L169.579 124.688C169.067 123.344 168.299 122.331 167.275 121.648C166.251 120.944 165.046 120.592 163.659 120.592C162.806 120.592 162.048 120.741 161.387 121.04C160.747 121.317 160.246 121.733 159.883 122.288C159.542 122.821 159.371 123.461 159.371 124.208C159.371 125.083 159.648 125.861 160.203 126.544C160.758 127.227 161.6 127.749 162.731 128.112L166.731 129.296C168.608 129.872 170.027 130.693 170.987 131.76C171.947 132.827 172.427 134.149 172.427 135.728C172.427 137.029 172.086 138.181 171.403 139.184C170.742 140.187 169.814 140.976 168.619 141.552C167.446 142.107 166.08 142.384 164.523 142.384ZM183.418 142V118.16H198.938V121.04H186.554V128.592H198.298V131.472H186.554V139.12H198.938V142H183.418ZM213.385 142V121.04H206.921V118.16H222.921V121.04H216.553V142H213.385Z" fill="#1E40AF"/>
</g>
<defs>
<clipPath id="clip0_1080_120">
<rect width="310" height="149" fill="white"/>
</clipPath>
</defs>
</svg>
