<svg width="310" height="149" viewBox="0 0 310 149" fill="none" xmlns="http://www.w3.org/2000/svg">
<g clip-path="url(#clip0_1080_120)">
<path d="M56.192 110.536C49.024 110.536 42.368 109.299 36.224 106.824C30.08 104.349 24.704 100.893 20.096 96.456C15.5733 91.9333 12.032 86.6853 9.472 80.712C6.912 74.7387 5.632 68.2533 5.632 61.256C5.632 54.2587 6.86933 47.7733 9.344 41.8C11.904 35.8267 15.4453 30.6213 19.968 26.184C24.576 21.7467 29.952 18.2907 36.096 15.816C42.24 13.3413 48.9387 12.104 56.192 12.104C63.4453 12.104 70.144 13.3413 76.288 15.816C82.432 18.2907 87.7653 21.7467 92.288 26.184C96.896 30.6213 100.437 35.8267 102.912 41.8C105.472 47.7733 106.752 54.2587 106.752 61.256C106.752 68.2533 105.472 74.7387 102.912 80.712C100.352 86.6853 96.768 91.9333 92.16 96.456C87.6373 100.893 82.304 104.349 76.16 106.824C70.016 109.299 63.36 110.536 56.192 110.536ZM56.192 92.616C60.544 92.616 64.5547 91.848 68.224 90.312C71.9787 88.776 75.264 86.6427 78.08 83.912C80.896 81.096 83.072 77.768 84.608 73.928C86.144 70.088 86.912 65.864 86.912 61.256C86.912 56.648 86.144 52.4667 84.608 48.712C83.072 44.872 80.896 41.544 78.08 38.728C75.264 35.912 71.9787 33.7787 68.224 32.328C64.5547 30.792 60.544 30.024 56.192 30.024C51.84 30.024 47.7867 30.792 44.032 32.328C40.3627 33.7787 37.12 35.912 34.304 38.728C31.488 41.544 29.312 44.872 27.776 48.712C26.24 52.4667 25.472 56.648 25.472 61.256C25.472 65.864 26.24 70.088 27.776 73.928C29.312 77.768 31.488 81.096 34.304 83.912C37.12 86.6427 40.3627 88.776 44.032 90.312C47.7867 91.848 51.84 92.616 56.192 92.616Z" fill="#2B2B2B"/>
<path d="M110.448 109V13.64H129.648L165.36 61H156.4L191.088 13.64H210.288V109H190.448V35.528L198.384 37.32L161.648 84.68H159.088L123.632 37.32L130.288 35.528V109H110.448Z" fill="#2B2B2B"/>
<path d="M213.408 109L245.664 13.64H272.032L304.288 109H282.656L276.256 89.544H241.312L234.912 109H213.408ZM246.816 72.264H270.752L256.16 27.208H261.536L246.816 72.264Z" fill="#2B2B2B"/>
<path d="M99.352 142L108.056 118.16H110.808L119.512 142H116.824L114.776 136.176H104.12L102.04 142H99.352ZM104.952 133.776H113.88L109.048 120.08H109.816L104.952 133.776ZM136.811 142.384C135.296 142.384 133.92 142.096 132.682 141.52C131.445 140.944 130.4 140.176 129.546 139.216C128.693 138.235 128.085 137.157 127.722 135.984L130.026 135.12C130.581 136.741 131.445 137.979 132.618 138.832C133.792 139.664 135.189 140.08 136.811 140.08C137.835 140.08 138.731 139.92 139.498 139.6C140.288 139.259 140.896 138.789 141.323 138.192C141.749 137.595 141.962 136.901 141.962 136.112C141.962 134.939 141.642 134.032 141.003 133.392C140.363 132.752 139.445 132.261 138.25 131.92L133.962 130.64C132.277 130.149 130.976 129.328 130.058 128.176C129.162 127.024 128.714 125.712 128.714 124.24C128.714 122.981 129.024 121.872 129.642 120.912C130.261 119.931 131.104 119.163 132.17 118.608C133.258 118.053 134.485 117.776 135.851 117.776C137.28 117.776 138.56 118.043 139.691 118.576C140.843 119.088 141.813 119.771 142.603 120.624C143.392 121.477 143.957 122.427 144.299 123.472L142.059 124.368C141.547 122.96 140.747 121.893 139.659 121.168C138.592 120.443 137.333 120.08 135.882 120.08C134.965 120.08 134.155 120.24 133.451 120.56C132.768 120.88 132.234 121.339 131.851 121.936C131.466 122.533 131.274 123.237 131.274 124.048C131.274 125.029 131.584 125.915 132.202 126.704C132.821 127.472 133.77 128.048 135.05 128.432L138.826 129.552C140.704 130.107 142.123 130.907 143.083 131.952C144.043 132.997 144.523 134.309 144.523 135.888C144.523 137.168 144.192 138.299 143.531 139.28C142.891 140.24 141.984 140.997 140.811 141.552C139.659 142.107 138.325 142.384 136.811 142.384ZM163.898 142.384C162.383 142.384 161.007 142.096 159.77 141.52C158.533 140.944 157.487 140.176 156.634 139.216C155.781 138.235 155.173 137.157 154.81 135.984L157.114 135.12C157.669 136.741 158.533 137.979 159.706 138.832C160.879 139.664 162.277 140.08 163.898 140.08C164.922 140.08 165.818 139.92 166.586 139.6C167.375 139.259 167.983 138.789 168.41 138.192C168.837 137.595 169.05 136.901 169.05 136.112C169.05 134.939 168.73 134.032 168.09 133.392C167.45 132.752 166.533 132.261 165.338 131.92L161.05 130.64C159.365 130.149 158.063 129.328 157.146 128.176C156.25 127.024 155.802 125.712 155.802 124.24C155.802 122.981 156.111 121.872 156.73 120.912C157.349 119.931 158.191 119.163 159.258 118.608C160.346 118.053 161.573 117.776 162.938 117.776C164.367 117.776 165.647 118.043 166.778 118.576C167.93 119.088 168.901 119.771 169.69 120.624C170.479 121.477 171.045 122.427 171.386 123.472L169.146 124.368C168.634 122.96 167.834 121.893 166.746 121.168C165.679 120.443 164.421 120.08 162.97 120.08C162.053 120.08 161.242 120.24 160.538 120.56C159.855 120.88 159.322 121.339 158.938 121.936C158.554 122.533 158.362 123.237 158.362 124.048C158.362 125.029 158.671 125.915 159.29 126.704C159.909 127.472 160.858 128.048 162.138 128.432L165.914 129.552C167.791 130.107 169.21 130.907 170.17 131.952C171.13 132.997 171.61 134.309 171.61 135.888C171.61 137.168 171.279 138.299 170.618 139.28C169.978 140.24 169.071 140.997 167.898 141.552C166.746 142.107 165.413 142.384 163.898 142.384ZM182.953 142V118.16H198.313V120.56H185.513V128.848H197.673V131.248H185.513V139.6H198.313V142H182.953ZM213.075 142V120.56H206.483V118.16H222.163V120.56H215.635V142H213.075Z" fill="url(#paint0_linear_1080_120)"/>
</g>
<defs>
<linearGradient id="paint0_linear_1080_120" x1="99" y1="129" x2="223" y2="129" gradientUnits="userSpaceOnUse">
<stop stop-color="#3B82F6"/>
<stop offset="1" stop-color="#8B5CF6"/>
</linearGradient>
<clipPath id="clip0_1080_120">
<rect width="310" height="149" fill="white"/>
</clipPath>
</defs>
</svg>
