<svg width="310" height="142" viewBox="0 0 310 142" fill="none" xmlns="http://www.w3.org/2000/svg">
<g clip-path="url(#clip0_1080_120)">
<path d="M56.192 110.536C49.024 110.536 42.368 109.299 36.224 106.824C30.08 104.349 24.704 100.893 20.096 96.456C15.5733 91.9333 12.032 86.6853 9.472 80.712C6.912 74.7387 5.632 68.2533 5.632 61.256C5.632 54.2587 6.86933 47.7733 9.344 41.8C11.904 35.8267 15.4453 30.6213 19.968 26.184C24.576 21.7467 29.952 18.2907 36.096 15.816C42.24 13.3413 48.9387 12.104 56.192 12.104C63.4453 12.104 70.144 13.3413 76.288 15.816C82.432 18.2907 87.7653 21.7467 92.288 26.184C96.896 30.6213 100.437 35.8267 102.912 41.8C105.472 47.7733 106.752 54.2587 106.752 61.256C106.752 68.2533 105.472 74.7387 102.912 80.712C100.352 86.6853 96.768 91.9333 92.16 96.456C87.6373 100.893 82.304 104.349 76.16 106.824C70.016 109.299 63.36 110.536 56.192 110.536ZM56.192 92.616C60.544 92.616 64.5547 91.848 68.224 90.312C71.9787 88.776 75.264 86.6427 78.08 83.912C80.896 81.096 83.072 77.768 84.608 73.928C86.144 70.088 86.912 65.864 86.912 61.256C86.912 56.648 86.144 52.4667 84.608 48.712C83.072 44.872 80.896 41.544 78.08 38.728C75.264 35.912 71.9787 33.7787 68.224 32.328C64.5547 30.792 60.544 30.024 56.192 30.024C51.84 30.024 47.7867 30.792 44.032 32.328C40.3627 33.7787 37.12 35.912 34.304 38.728C31.488 41.544 29.312 44.872 27.776 48.712C26.24 52.4667 25.472 56.648 25.472 61.256C25.472 65.864 26.24 70.088 27.776 73.928C29.312 77.768 31.488 81.096 34.304 83.912C37.12 86.6427 40.3627 88.776 44.032 90.312C47.7867 91.848 51.84 92.616 56.192 92.616Z" fill="#2B2B2B"/>
<path d="M110.448 109V13.64H129.648L165.36 61H156.4L191.088 13.64H210.288V109H190.448V35.528L198.384 37.32L161.648 84.68H159.088L123.632 37.32L130.288 35.528V109H110.448Z" fill="#2B2B2B"/>
<path d="M213.408 109L245.664 13.64H272.032L304.288 109H282.656L276.256 89.544H241.312L234.912 109H213.408ZM246.816 72.264H270.752L256.16 27.208H261.536L246.816 72.264Z" fill="#2B2B2B"/>
<path d="M110.264 137L116.792 119.12H118.856L125.384 137H123.368L121.832 132.632H113.84L112.28 137H110.264ZM114.464 130.832H121.16L117.536 120.56H118.112L114.464 130.832ZM140.278 137.288C139.142 137.288 138.11 137.072 137.182 136.64C136.254 136.208 135.47 135.632 134.83 134.912C134.19 134.176 133.734 133.368 133.462 132.488L135.19 131.84C135.606 133.056 136.254 133.984 137.134 134.624C138.014 135.248 139.062 135.56 140.278 135.56C141.046 135.56 141.718 135.44 142.294 135.2C142.886 134.944 143.342 134.592 143.662 134.144C143.982 133.696 144.142 133.176 144.142 132.584C144.142 131.704 143.902 131.024 143.422 130.544C142.942 130.064 142.254 129.696 141.358 129.44L138.142 128.48C136.878 128.112 135.902 127.496 135.214 126.632C134.542 125.768 134.206 124.784 134.206 123.68C134.206 122.736 134.438 121.904 134.902 121.184C135.366 120.448 135.998 119.872 136.798 119.456C137.614 119.04 138.534 118.832 139.558 118.832C140.63 118.832 141.59 119.032 142.438 119.432C143.302 119.816 144.03 120.328 144.622 120.968C145.214 121.608 145.638 122.32 145.894 123.104L144.214 123.776C143.83 122.72 143.23 121.92 142.414 121.376C141.614 120.832 140.67 120.56 139.582 120.56C138.894 120.56 138.286 120.68 137.758 120.92C137.246 121.16 136.846 121.504 136.558 121.952C136.27 122.4 136.126 122.928 136.126 123.536C136.126 124.272 136.358 124.936 136.822 125.528C137.286 126.104 137.998 126.536 138.958 126.824L141.79 127.664C143.198 128.08 144.262 128.68 144.982 129.464C145.702 130.248 146.062 131.232 146.062 132.416C146.062 133.376 145.814 134.224 145.318 134.96C144.838 135.68 144.158 136.248 143.278 136.664C142.414 137.08 141.414 137.288 140.278 137.288ZM162.513 137.288C161.377 137.288 160.345 137.072 159.417 136.64C158.489 136.208 157.705 135.632 157.065 134.912C156.425 134.176 155.969 133.368 155.697 132.488L157.425 131.84C157.841 133.056 158.489 133.984 159.369 134.624C160.249 135.248 161.297 135.56 162.513 135.56C163.281 135.56 163.953 135.44 164.529 135.2C165.121 134.944 165.577 134.592 165.897 134.144C166.217 133.696 166.377 133.176 166.377 132.584C166.377 131.704 166.137 131.024 165.657 130.544C165.177 130.064 164.489 129.696 163.593 129.44L160.377 128.48C159.113 128.112 158.137 127.496 157.449 126.632C156.777 125.768 156.441 124.784 156.441 123.68C156.441 122.736 156.673 121.904 157.137 121.184C157.601 120.448 158.233 119.872 159.033 119.456C159.849 119.04 160.769 118.832 161.793 118.832C162.865 118.832 163.825 119.032 164.673 119.432C165.537 119.816 166.265 120.328 166.857 120.968C167.449 121.608 167.873 122.32 168.129 123.104L166.449 123.776C166.065 122.72 165.465 121.92 164.649 121.376C163.849 120.832 162.905 120.56 161.817 120.56C161.129 120.56 160.521 120.68 159.993 120.92C159.481 121.16 159.081 121.504 158.793 121.952C158.505 122.4 158.361 122.928 158.361 123.536C158.361 124.272 158.593 124.936 159.057 125.528C159.521 126.104 160.233 126.536 161.193 126.824L164.025 127.664C165.433 128.08 166.497 128.68 167.217 129.464C167.937 130.248 168.297 131.232 168.297 132.416C168.297 133.376 168.049 134.224 167.553 134.96C167.073 135.68 166.393 136.248 165.513 136.664C164.649 137.08 163.649 137.288 162.513 137.288ZM178.725 137V119.12H190.245V120.92H180.645V127.136H189.765V128.936H180.645V135.2H190.245V137H178.725ZM203.236 137V120.92H198.292V119.12H210.052V120.92H205.156V137H203.236Z" fill="url(#paint0_linear_1080_120)"/>
</g>
<defs>
<linearGradient id="paint0_linear_1080_120" x1="110" y1="127" x2="211" y2="127" gradientUnits="userSpaceOnUse">
<stop stop-color="#3B82F6"/>
<stop offset="1" stop-color="#8B5CF6"/>
</linearGradient>
<clipPath id="clip0_1080_120">
<rect width="310" height="142" fill="white"/>
</clipPath>
</defs>
</svg>
