<svg width="788" height="788" viewBox="0 0 788 788" fill="none" xmlns="http://www.w3.org/2000/svg">
<path d="M182.096 560.528H202.832L227.408 624.144L252.112 560.528H272.72L237.008 650H217.936L182.096 560.528ZM280.971 603.792H325.003V619.152H280.971V603.792ZM335.906 560.528H355.362V633.744H396.322V650H335.906V560.528ZM404.656 560.528H424.112V650H404.656V560.528ZM437.531 560.528H456.475L493.851 618.384V560.528H513.307V650H494.491L456.987 592.144V650H437.531V560.528ZM526.656 560.528H546.112V599.44L579.904 560.528H603.072L565.184 604.176L605.632 650H582.464L546.112 608.912V650H526.656V560.528Z" fill="#F0F0F0"/>
<path d="M300.6 674.08H310.44L332.76 730H322.44L317.32 717.12H293.64L288.6 730H278.2L300.6 674.08ZM314.52 708.72L305.48 684.96L296.44 708.72H314.52ZM353.304 731.2C349.997 731.2 346.717 730.88 343.464 730.24C340.264 729.653 337.624 728.853 335.544 727.84V719.12C338.21 720.4 341.01 721.36 343.944 722C346.877 722.64 349.757 722.96 352.584 722.96C356.157 722.96 358.877 722.293 360.744 720.96C362.61 719.627 363.544 717.787 363.544 715.44C363.544 713.787 363.117 712.427 362.264 711.36C361.41 710.24 360.157 709.28 358.504 708.48C356.85 707.627 354.317 706.533 350.904 705.2C345.677 703.067 341.89 700.693 339.544 698.08C337.197 695.467 336.024 692.213 336.024 688.32C336.024 685.28 336.85 682.587 338.504 680.24C340.157 677.893 342.477 676.08 345.464 674.8C348.45 673.52 351.89 672.88 355.784 672.88C358.984 672.88 361.81 673.147 364.264 673.68C366.77 674.16 369.224 674.933 371.624 676V684.48C366.984 682.24 362.29 681.12 357.544 681.12C354.13 681.12 351.49 681.76 349.624 683.04C347.757 684.267 346.824 686.027 346.824 688.32C346.824 689.973 347.25 691.333 348.104 692.4C348.957 693.413 350.077 694.293 351.464 695.04C352.904 695.733 355.464 696.853 359.144 698.4C362.877 699.947 365.81 701.467 367.944 702.96C370.13 704.453 371.757 706.213 372.824 708.24C373.944 710.213 374.504 712.64 374.504 715.52C374.504 720.48 372.717 724.347 369.144 727.12C365.57 729.84 360.29 731.2 353.304 731.2ZM395.882 731.2C392.575 731.2 389.295 730.88 386.042 730.24C382.842 729.653 380.202 728.853 378.122 727.84V719.12C380.789 720.4 383.589 721.36 386.522 722C389.455 722.64 392.335 722.96 395.162 722.96C398.735 722.96 401.455 722.293 403.322 720.96C405.189 719.627 406.122 717.787 406.122 715.44C406.122 713.787 405.695 712.427 404.842 711.36C403.989 710.24 402.735 709.28 401.082 708.48C399.429 707.627 396.895 706.533 393.482 705.2C388.255 703.067 384.469 700.693 382.122 698.08C379.775 695.467 378.602 692.213 378.602 688.32C378.602 685.28 379.429 682.587 381.082 680.24C382.735 677.893 385.055 676.08 388.042 674.8C391.029 673.52 394.469 672.88 398.362 672.88C401.562 672.88 404.389 673.147 406.842 673.68C409.349 674.16 411.802 674.933 414.202 676V684.48C409.562 682.24 404.869 681.12 400.122 681.12C396.709 681.12 394.069 681.76 392.202 683.04C390.335 684.267 389.402 686.027 389.402 688.32C389.402 689.973 389.829 691.333 390.682 692.4C391.535 693.413 392.655 694.293 394.042 695.04C395.482 695.733 398.042 696.853 401.722 698.4C405.455 699.947 408.389 701.467 410.522 702.96C412.709 704.453 414.335 706.213 415.402 708.24C416.522 710.213 417.082 712.64 417.082 715.52C417.082 720.48 415.295 724.347 411.722 727.12C408.149 729.84 402.869 731.2 395.882 731.2ZM425.113 674.08H462.953V682.48H435.273V697.84H455.833V706.24H435.273V721.6H462.953V730H425.113V674.08ZM483.871 682.48H466.991V674.08H510.911V682.48H494.031V730H483.871V682.48Z" fill="#F0F0F0"/>
<path d="M346.729 510.911C391.353 510.911 515.489 278.428 570.503 170.931C587.2 138.304 620.575 117.582 657.227 117.582L692.94 117.582L495.209 472.729C482.086 496.299 457.226 510.911 430.249 510.911L346.729 510.911Z" fill="url(#paint0_linear_1127_395)"/>
<path d="M483.302 509.86C514.108 469.413 562.035 445.671 612.878 445.671H738.692C738.692 481.122 709.954 509.86 674.503 509.86H483.302Z" fill="#AEEA00"/>
<path d="M182.955 166.234C166.859 137.545 136.526 119.782 103.63 119.782L49.0005 119.782C71.6644 131.336 90.2094 149.604 102.103 172.092L269.931 489.402C280.694 509.751 306.058 517.31 326.204 506.172C346.177 495.13 353.345 469.941 342.179 450.037L182.955 166.234Z" fill="url(#paint1_linear_1127_395)"/>
<path d="M430.608 166.234C446.704 137.545 477.036 119.782 509.932 119.782L564.562 119.782C541.898 131.336 523.353 149.604 511.459 172.092L343.799 489.086C332.944 509.609 307.363 517.232 287.045 505.999C267.245 495.052 260.139 470.081 271.209 450.349L430.608 166.234Z" fill="url(#paint2_linear_1127_395)"/>
<defs>
<linearGradient id="paint0_linear_1127_395" x1="346.729" y1="315.927" x2="580.95" y2="315.927" gradientUnits="userSpaceOnUse">
<stop stop-color="#0D9488"/>
<stop offset="1" stop-color="#5EEAD4"/>
</linearGradient>
<linearGradient id="paint1_linear_1127_395" x1="91.4641" y1="96.3053" x2="319.971" y2="509.618" gradientUnits="userSpaceOnUse">
<stop stop-color="#22D3EE"/>
<stop offset="1" stop-color="#0E7490"/>
</linearGradient>
<linearGradient id="paint2_linear_1127_395" x1="279.808" y1="356.216" x2="268.101" y2="221.582" gradientUnits="userSpaceOnUse">
<stop stop-color="#32E3D1"/>
<stop offset="1" stop-color="#03CFBB"/>
</linearGradient>
</defs>
</svg>
